<?xml version="1.0" encoding="UTF-8"?>
<svg version="1.1" xmlns="http://www.w3.org/2000/svg" width="512" height="512">
<path d="M0 0 C7.9996039 6.00560234 14.66739551 13.03341717 17 23 C17 25.31 17 27.62 17 30 C24.92 30 32.84 30 41 30 C41.66 26.37 42.32 22.74 43 19 C47.3790018 8.13358813 54.31318712 1.72969207 65 -3 C72.30172858 -5.54711462 84.24877068 -5.3261878 91.20703125 -2.0390625 C91.79871094 -1.69617188 92.39039063 -1.35328125 93 -1 C94.11955078 -0.36191406 94.11955078 -0.36191406 95.26171875 0.2890625 C103.38592954 5.3113019 109.27417325 11.69025324 112 21 C112.33 23.97 112.66 26.94 113 30 C120.92 30 128.84 30 137 30 C137.33 27.03 137.66 24.06 138 21 C140.75323803 11.27485277 147.44376225 4.64428095 155.69140625 -0.7734375 C164.32711404 -5.36161389 175.157762 -5.50579807 184.53125 -3.08984375 C194.56716109 0.85102538 200.73926423 6.65882174 206 16 C207.79930388 20.28405685 208.36865907 24.41333512 209 29 C210.02738281 29.21914063 211.05476563 29.43828125 212.11328125 29.6640625 C226.76493042 32.94796112 239.2053338 38.62162788 248.25 51.1875 C256.57355686 64.61184379 257.15143279 77.83135393 257.13371277 93.1620636 C257.13558305 94.69982989 257.13788462 96.2375957 257.14057809 97.77536076 C257.14667557 101.98465175 257.14656492 106.19392281 257.14538372 110.4032172 C257.14517919 114.94934637 257.15070337 119.49546924 257.15544128 124.04159546 C257.16373692 132.94185699 257.16649563 141.84211189 257.16705366 150.74237696 C257.1675293 157.97842609 257.16958642 165.21447303 257.17275429 172.45052147 C257.18155756 192.97745938 257.18617412 213.50439206 257.18542381 234.03133187 C257.18536388 235.69019393 257.18536388 235.69019393 257.18530273 237.38256836 C257.18526185 238.48983043 257.18522097 239.5970925 257.18517885 240.73790797 C257.18477238 258.68354873 257.19434309 276.62916852 257.2084411 294.57480321 C257.22281106 313.0124299 257.22971096 331.45004637 257.22884732 349.8876788 C257.22851559 360.23454404 257.23125243 370.58138727 257.24202538 380.92824745 C257.25113847 389.73715286 257.25329893 398.54602629 257.24651595 407.35493437 C257.24325497 411.84652195 257.24317885 416.33804819 257.2518692 420.8296299 C257.25975364 424.94712718 257.25828299 429.06451469 257.24958507 433.18200936 C257.24805437 434.66579378 257.24984992 436.14958648 257.25544515 437.63336114 C257.31914953 455.73622038 254.97255549 471.4878988 242 485 C227.63701579 498.49329893 211.37848123 499.30221399 192.75927734 499.2746582 C190.81334234 499.27901081 188.86740905 499.28419578 186.92147827 499.29014587 C181.65668179 499.3034915 176.39195729 499.30411924 171.1271472 499.30158257 C166.71917544 499.30050935 162.31121805 499.30540547 157.90324938 499.310188 C147.49391956 499.32126894 137.08462583 499.32172925 126.67529297 499.31567383 C115.97012162 499.30964154 105.26508195 499.32192941 94.55993307 499.3432439 C85.34171478 499.36091669 76.12353818 499.36685213 66.9053036 499.36360615 C61.41190358 499.36180139 55.9185974 499.36434788 50.42521286 499.37832069 C45.25243241 499.39098627 40.07985546 499.38887316 34.90707779 499.37590981 C33.02064695 499.37356295 31.13420141 499.37620986 29.24778748 499.38453293 C-0.89141904 499.50780211 -21.57995365 491.17034902 -43.1875 469.9375 C-46.32295985 466.76441463 -49.24650471 463.44882937 -52.15234375 460.06640625 C-54.18910592 457.78850522 -56.32474075 455.64581412 -58.5 453.5 C-61.91060428 450.13548497 -65.08158885 446.65699183 -68.1953125 443.01953125 C-70.16982449 440.80995831 -72.25244591 438.75497051 -74.375 436.6875 C-91.06383406 420.14057779 -102.13082148 401.31899073 -102.2814731 377.44674367 C-102.27905802 376.24741808 -102.27664293 375.04809249 -102.27415466 373.81242371 C-102.27939134 372.51448216 -102.28462802 371.21654062 -102.29002339 369.87926751 C-102.30411165 366.3012374 -102.30586844 362.72329453 -102.30542648 359.14524066 C-102.30708279 355.27667462 -102.32016414 351.40814369 -102.33161926 347.53959656 C-102.35440284 339.09330468 -102.36238225 330.64703804 -102.36744571 322.20071959 C-102.37070955 316.92165935 -102.37723604 311.64260633 -102.3844471 306.36355019 C-102.40400198 291.73106593 -102.42041349 277.09858837 -102.42332363 262.4660902 C-102.42360499 261.06347191 -102.42360499 261.06347191 -102.42389202 259.63251789 C-102.42425826 257.73712973 -102.42462196 255.84174156 -102.42498314 253.9463534 C-102.42516595 253.00555824 -102.42534876 252.06476309 -102.42553711 251.09545898 C-102.42571766 250.15350854 -102.42589821 249.21155809 -102.42608423 248.24106369 C-102.42962629 232.97648299 -102.45665565 217.71204331 -102.494035 202.44751152 C-102.53215419 186.75464241 -102.55148136 171.06184324 -102.55178314 155.36892682 C-102.55236679 146.56626111 -102.56079932 137.76376382 -102.58978081 128.96114159 C-102.61434271 121.46682501 -102.62154501 113.97273832 -102.60653328 106.47839233 C-102.59938476 102.65891645 -102.60013216 98.83989412 -102.62294388 95.02046967 C-102.64749725 90.86949217 -102.63284143 86.71953782 -102.61473083 82.56852722 C-102.6279308 81.3758938 -102.64113077 80.18326038 -102.65473074 78.95448655 C-102.55012434 68.41370011 -99.61884285 58.37088949 -93 50 C-92.50886719 49.36707031 -92.01773438 48.73414063 -91.51171875 48.08203125 C-82.63573486 37.20640041 -70.75879438 31.71421045 -57 30 C-56.01 30 -55.02 30 -54 30 C-54.1546875 28.63875 -54.1546875 28.63875 -54.3125 27.25 C-54.3125 20.43025105 -50.82462812 13.00578069 -46.75 7.625 C-34.65880207 -3.91659803 -15.09845631 -9.67650207 0 0 Z " fill="#FDD765" transform="translate(110,4)"/>
<path d="M0 0 C7.9996039 6.00560234 14.66739551 13.03341717 17 23 C17 25.31 17 27.62 17 30 C24.92 30 32.84 30 41 30 C41.66 26.37 42.32 22.74 43 19 C47.3790018 8.13358813 54.31318712 1.72969207 65 -3 C72.30172858 -5.54711462 84.24877068 -5.3261878 91.20703125 -2.0390625 C91.79871094 -1.69617188 92.39039063 -1.35328125 93 -1 C94.11955078 -0.36191406 94.11955078 -0.36191406 95.26171875 0.2890625 C103.38592954 5.3113019 109.27417325 11.69025324 112 21 C112.33 23.97 112.66 26.94 113 30 C120.92 30 128.84 30 137 30 C137.33 27.03 137.66 24.06 138 21 C140.75323803 11.27485277 147.44376225 4.64428095 155.69140625 -0.7734375 C164.32711404 -5.36161389 175.157762 -5.50579807 184.53125 -3.08984375 C194.56716109 0.85102538 200.73926423 6.65882174 206 16 C207.79930388 20.28405685 208.36865907 24.41333512 209 29 C210.02738281 29.21914063 211.05476563 29.43828125 212.11328125 29.6640625 C226.76493042 32.94796112 239.2053338 38.62162788 248.25 51.1875 C256.57355686 64.61184379 257.15143279 77.83135393 257.13371277 93.1620636 C257.13558305 94.69982989 257.13788462 96.2375957 257.14057809 97.77536076 C257.14667557 101.98465175 257.14656492 106.19392281 257.14538372 110.4032172 C257.14517919 114.94934637 257.15070337 119.49546924 257.15544128 124.04159546 C257.16373692 132.94185699 257.16649563 141.84211189 257.16705366 150.74237696 C257.1675293 157.97842609 257.16958642 165.21447303 257.17275429 172.45052147 C257.18155756 192.97745938 257.18617412 213.50439206 257.18542381 234.03133187 C257.18536388 235.69019393 257.18536388 235.69019393 257.18530273 237.38256836 C257.18526185 238.48983043 257.18522097 239.5970925 257.18517885 240.73790797 C257.18477238 258.68354873 257.19434309 276.62916852 257.2084411 294.57480321 C257.22281106 313.0124299 257.22971096 331.45004637 257.22884732 349.8876788 C257.22851559 360.23454404 257.23125243 370.58138727 257.24202538 380.92824745 C257.25113847 389.73715286 257.25329893 398.54602629 257.24651595 407.35493437 C257.24325497 411.84652195 257.24317885 416.33804819 257.2518692 420.8296299 C257.25975364 424.94712718 257.25828299 429.06451469 257.24958507 433.18200936 C257.24805437 434.66579378 257.24984992 436.14958648 257.25544515 437.63336114 C257.31914953 455.73622038 254.97255549 471.4878988 242 485 C227.63701579 498.49329893 211.37848123 499.30221399 192.75927734 499.2746582 C190.81334234 499.27901081 188.86740905 499.28419578 186.92147827 499.29014587 C181.65668179 499.3034915 176.39195729 499.30411924 171.1271472 499.30158257 C166.71917544 499.30050935 162.31121805 499.30540547 157.90324938 499.310188 C147.49391956 499.32126894 137.08462583 499.32172925 126.67529297 499.31567383 C115.97012162 499.30964154 105.26508195 499.32192941 94.55993307 499.3432439 C85.34171478 499.36091669 76.12353818 499.36685213 66.9053036 499.36360615 C61.41190358 499.36180139 55.9185974 499.36434788 50.42521286 499.37832069 C45.25243241 499.39098627 40.07985546 499.38887316 34.90707779 499.37590981 C33.02064695 499.37356295 31.13420141 499.37620986 29.24778748 499.38453293 C-0.89141904 499.50780211 -21.57995365 491.17034902 -43.1875 469.9375 C-46.32295985 466.76441463 -49.24650471 463.44882937 -52.15234375 460.06640625 C-54.18910592 457.78850522 -56.32474075 455.64581412 -58.5 453.5 C-61.91060428 450.13548497 -65.08158885 446.65699183 -68.1953125 443.01953125 C-70.16982449 440.80995831 -72.25244591 438.75497051 -74.375 436.6875 C-91.06383406 420.14057779 -102.13082148 401.31899073 -102.2814731 377.44674367 C-102.27905802 376.24741808 -102.27664293 375.04809249 -102.27415466 373.81242371 C-102.27939134 372.51448216 -102.28462802 371.21654062 -102.29002339 369.87926751 C-102.30411165 366.3012374 -102.30586844 362.72329453 -102.30542648 359.14524066 C-102.30708279 355.27667462 -102.32016414 351.40814369 -102.33161926 347.53959656 C-102.35440284 339.09330468 -102.36238225 330.64703804 -102.36744571 322.20071959 C-102.37070955 316.92165935 -102.37723604 311.64260633 -102.3844471 306.36355019 C-102.40400198 291.73106593 -102.42041349 277.09858837 -102.42332363 262.4660902 C-102.42360499 261.06347191 -102.42360499 261.06347191 -102.42389202 259.63251789 C-102.42425826 257.73712973 -102.42462196 255.84174156 -102.42498314 253.9463534 C-102.42516595 253.00555824 -102.42534876 252.06476309 -102.42553711 251.09545898 C-102.42571766 250.15350854 -102.42589821 249.21155809 -102.42608423 248.24106369 C-102.42962629 232.97648299 -102.45665565 217.71204331 -102.494035 202.44751152 C-102.53215419 186.75464241 -102.55148136 171.06184324 -102.55178314 155.36892682 C-102.55236679 146.56626111 -102.56079932 137.76376382 -102.58978081 128.96114159 C-102.61434271 121.46682501 -102.62154501 113.97273832 -102.60653328 106.47839233 C-102.59938476 102.65891645 -102.60013216 98.83989412 -102.62294388 95.02046967 C-102.64749725 90.86949217 -102.63284143 86.71953782 -102.61473083 82.56852722 C-102.6279308 81.3758938 -102.64113077 80.18326038 -102.65473074 78.95448655 C-102.55012434 68.41370011 -99.61884285 58.37088949 -93 50 C-92.50886719 49.36707031 -92.01773438 48.73414063 -91.51171875 48.08203125 C-82.63573486 37.20640041 -70.75879438 31.71421045 -57 30 C-56.01 30 -55.02 30 -54 30 C-54.1546875 28.63875 -54.1546875 28.63875 -54.3125 27.25 C-54.3125 20.43025105 -50.82462812 13.00578069 -46.75 7.625 C-34.65880207 -3.91659803 -15.09845631 -9.67650207 0 0 Z M-74.22547472 58.99456668 C-81.24571508 66.92830765 -82.87752299 75.73824525 -82.7215271 85.98406982 C-82.72665365 87.23572284 -82.7317802 88.48737586 -82.7370621 89.77695775 C-82.75035581 93.21635236 -82.72665268 96.65460678 -82.69639373 100.09385633 C-82.67031016 103.81555848 -82.67926329 107.53720424 -82.68380737 111.25897217 C-82.68694268 117.69557493 -82.66823186 124.13181075 -82.63438034 130.56832123 C-82.58547005 139.87419309 -82.56997661 149.17988882 -82.56245239 158.48587528 C-82.54934372 173.58671255 -82.50947704 188.68735458 -82.45263672 203.78808594 C-82.39750263 218.45083647 -82.35506148 233.11353383 -82.32958984 247.77636719 C-82.3280135 248.68126116 -82.32643716 249.58615514 -82.32481305 250.51847014 C-82.31698242 255.05837985 -82.30940027 259.59828994 -82.30194163 264.13820028 C-82.23981328 301.758938 -82.13419754 339.37945375 -82 377 C-80.71453026 377.01213028 -80.71453026 377.01213028 -79.40309143 377.02450562 C-71.29717452 377.10268943 -63.19141834 377.19005056 -55.08570957 377.28752708 C-50.91923363 377.3373132 -46.7527809 377.38364368 -42.58618164 377.421875 C-38.5595403 377.45895263 -34.53310187 377.50537112 -30.50663567 377.55806351 C-28.97622197 377.57648878 -27.44576497 377.59163974 -25.91528511 377.60334396 C-13.7114237 377.69994895 -2.92210048 378.08253442 7 386 C13.1706617 392.9976576 15.28967965 400.51539464 15.31884766 409.77124023 C15.32889328 410.51353378 15.3389389 411.25582733 15.34928894 412.02061462 C15.37993503 414.44993383 15.39710379 416.8791438 15.4140625 419.30859375 C15.43278914 421.00253731 15.45236366 422.69647169 15.4727478 424.39039612 C15.52391705 428.83066375 15.56362382 433.27096158 15.60089111 437.71136475 C15.64102647 442.24970882 15.69207518 446.78792894 15.7421875 451.32617188 C15.83876655 460.21736065 15.9232286 469.10861966 16 478 C41.6086624 478.14031947 67.21726697 478.24604436 92.82623672 478.31087303 C104.71762208 478.34177762 116.60876821 478.38389342 128.5 478.45263672 C138.86747265 478.51254246 149.23477201 478.55117382 159.60241294 478.56453097 C165.08930914 478.57233575 170.57570966 478.59060819 176.06244659 478.63438034 C181.23355518 478.67529776 186.4039669 478.68763043 191.57522202 478.67864609 C193.46658753 478.68028819 195.35797787 478.69210862 197.24920273 478.71523285 C208.90439163 478.85067593 218.5678611 478.33047338 227.90610123 470.37644005 C236.10466705 461.68900871 236.58315851 451.82361203 236.52139282 440.45829773 C236.52743984 438.87927667 236.5352208 437.30026147 236.54457796 435.72125655 C236.56510486 431.39785358 236.56078302 427.07478293 236.55221677 422.75135291 C236.5472762 418.08249009 236.56531816 413.41370666 236.58029175 408.74487305 C236.6057735 399.60394853 236.60937465 390.46314156 236.60469122 381.32218751 C236.60112306 373.89066452 236.60462804 366.45917718 236.61314011 359.02765846 C236.61492567 357.44023956 236.61492567 357.44023956 236.61674731 355.82075158 C236.61917086 353.67074316 236.62159912 351.52073474 236.62403207 349.37072632 C236.64577862 329.21346529 236.6414603 309.0562712 236.62926237 288.8990064 C236.61892551 270.46830074 236.64143167 252.03780654 236.67945881 233.60714271 C236.71822602 214.67229203 236.73472573 195.73754137 236.72721231 176.80265075 C236.72338965 166.17626697 236.72834979 155.55006314 236.75664139 144.92371178 C236.78048443 135.87683487 236.78326189 126.83024867 236.75906105 117.78336772 C236.74729382 113.17009752 236.7450546 108.55735883 236.76906586 103.94412422 C236.79081997 99.71529926 236.78453657 95.48744837 236.75654249 91.25866864 C236.75125828 89.73450856 236.75595155 88.2102717 236.77201422 86.68618711 C236.8747866 76.20135557 235.39778618 67.17348386 228.25658572 59.00604552 C223.55264984 54.49109679 217.27070564 51.10135679 210.72265625 50.8984375 C209.82417969 50.93195312 208.92570312 50.96546875 208 51 C207.98598145 52.05743408 207.98598145 52.05743408 207.97167969 53.13623047 C207.91743138 56.38315152 207.83389276 59.62871488 207.75 62.875 C207.73582031 63.98359375 207.72164063 65.0921875 207.70703125 66.234375 C207.37293176 77.59375772 204.16980815 86.87678771 196 95 C186.69396912 101.98700389 177.85353917 103.84190096 166.453125 102.7578125 C157.18683663 101.34772514 150.40089299 96.35299569 144.50390625 89.2109375 C138.56177957 80.47523957 137.88346481 70.86301831 137.4375 60.625 C137.2209375 55.860625 137.2209375 55.860625 137 51 C129.08 51 121.16 51 113 51 C112.814375 55.3621875 112.814375 55.3621875 112.625 59.8125 C111.91397329 73.5210019 110.77048 84.78519325 100.375 94.8125 C92.33965962 101.23468493 83.70235178 103.89871635 73.4609375 103.48046875 C63.17907259 102.05307667 55.06039643 97.12016531 48.5078125 89.1953125 C40.72832515 78.10148735 41.43723352 63.94211227 41 51 C33.08 51 25.16 51 17 51 C16.896875 54.0525 16.79375 57.105 16.6875 60.25 C16.20811792 70.81178705 15.36752505 80.52757834 9.0859375 89.37890625 C7.80951167 91.12936585 7.80951167 91.12936585 7 94 C5.34765625 94.9609375 5.34765625 94.9609375 3 96 C1.98808594 96.56976563 0.97617188 97.13953125 -0.06640625 97.7265625 C-7.5397289 101.78470195 -13.36603284 104.18863996 -22 103 C-22.84175781 102.91363281 -23.68351562 102.82726562 -24.55078125 102.73828125 C-34.29988198 101.32822469 -41.48160918 96.44595393 -47.4296875 88.734375 C-52.34160644 80.18128232 -53.62451644 72.68553316 -53.75 62.875 C-53.77964844 61.72773437 -53.80929688 60.58046875 -53.83984375 59.3984375 C-53.90983242 56.59889078 -53.96287811 53.80014239 -54 51 C-62.24653055 50.74229592 -68.18148598 53.35052614 -74.22547472 58.99456668 Z " fill="#010100" transform="translate(110,4)"/>
<path d="M0 0 C8.70270279 5.17103914 12.91177861 17.14028798 17.30859375 25.88891602 C18.42703543 28.10427227 19.56845948 30.30673146 20.7109375 32.50976562 C21.44676584 33.96541208 22.18118496 35.42177192 22.9140625 36.87890625 C23.41264267 37.82824791 23.41264267 37.82824791 23.92129517 38.79676819 C31.96666562 55.11527977 31.37802586 72.22492834 31.27676249 89.96604872 C31.2593137 93.80765564 31.26534636 97.64923978 31.26837158 101.49087524 C31.27045805 108.12921654 31.25802333 114.76739926 31.23542023 121.40570068 C31.20276243 131.00326771 31.1924792 140.6007589 31.18746826 150.19837546 C31.17873709 165.77389521 31.15218097 181.34933065 31.11425781 196.92480469 C31.0774811 212.04524314 31.04919712 227.1656586 31.03222656 242.28613281 C31.03065022 243.68670237 31.03065022 243.68670237 31.02904204 245.11556625 C31.02382148 249.80023433 31.01876674 254.48490257 31.01379442 259.16957092 C30.9724003 297.96727294 30.90201161 336.76488088 30.8125 375.5625 C32.08829362 375.13578534 33.35959363 374.69562343 34.62890625 374.25 C35.33732666 374.00636719 36.04574707 373.76273437 36.77563477 373.51171875 C40.19128803 371.919958 41.69387385 369.64413803 43.8125 366.5625 C45.09635791 362.71092628 44.96512068 359.0696217 44.97021484 355.05541992 C44.97529556 354.18679825 44.98037628 353.31817657 44.98561096 352.42323303 C44.99631449 350.53585507 45.00493474 348.64846442 45.01173019 346.76106834 C45.02351834 343.77247359 45.04297133 340.78402339 45.06484985 337.79548645 C45.12646685 329.29787004 45.18050085 320.80026823 45.21386719 312.30249023 C45.23482387 307.1052984 45.27013598 301.90836983 45.31462479 296.71132851 C45.32877772 294.73185642 45.33750563 292.75233775 45.34067917 290.77281761 C45.34559329 288.0008532 45.36876452 285.22958614 45.39599609 282.45776367 C45.39148689 281.23484116 45.39148689 281.23484116 45.3868866 279.98721313 C45.45762274 275.13339081 46.10208476 271.75348013 48.8125 267.5625 C52.81504616 264.89413589 56.10563299 264.7284762 60.8125 265.5625 C63.56819447 267.74409145 65.24838747 269.43427494 66.8125 272.5625 C66.92155972 275.43871902 66.96983468 278.29108947 66.97363281 281.16796875 C66.98108017 282.50493553 66.98108017 282.50493553 66.98867798 283.86891174 C67.00332738 286.82928228 67.01010859 289.78959911 67.015625 292.75 C67.02137713 294.80826824 67.02713485 296.86653647 67.03289795 298.92480469 C67.04341785 303.24918874 67.04925306 307.57355416 67.05273438 311.89794922 C67.05820075 317.42131754 67.08218476 322.94443706 67.11070633 328.46772766 C67.12940045 332.72471821 67.13454206 336.98164987 67.13607025 341.23867798 C67.13908543 343.2735021 67.14707535 345.30832546 67.16025543 347.34310913 C67.17744666 350.2028851 67.17540319 353.06206732 67.16894531 355.921875 C67.1781601 356.75239883 67.18737488 357.58292267 67.1968689 358.43861389 C67.11801937 369.67139159 63.15958591 378.95562713 55.6875 387.25 C48.57134861 394.09968757 39.22314482 396.73397457 29.625 396.625 C28.87541016 396.62048828 28.12582031 396.61597656 27.35351562 396.61132812 C25.50647617 396.59956354 23.65947787 396.58162865 21.8125 396.5625 C21.82297363 397.33327881 21.83344727 398.10405762 21.84423828 398.89819336 C21.88612863 402.43209498 21.9119306 405.9659441 21.9375 409.5 C21.96263672 411.31854492 21.96263672 411.31854492 21.98828125 413.17382812 C22.04967207 424.50043406 21.08211264 432.61930747 13.8125 441.5625 C7.16542886 448.20957114 0.63864265 450.79177113 -8.6875 451.0625 C-18.14879707 450.7694928 -24.46581607 448.03209014 -31.39453125 441.62890625 C-37.35792595 434.75606138 -39.3215266 427.26499145 -39.28515625 418.390625 C-39.2837413 417.7082074 -39.28232635 417.02578979 -39.28086853 416.32269287 C-39.27529084 414.15258316 -39.26274254 411.9825783 -39.25 409.8125 C-39.24498211 408.33724108 -39.24041971 406.86198053 -39.23632812 405.38671875 C-39.22532875 401.77861202 -39.20807953 398.17056625 -39.1875 394.5625 C-40.10982422 394.14291016 -40.10982422 394.14291016 -41.05078125 393.71484375 C-44.86249962 391.65916382 -46.84151865 388.60044404 -48.1875 384.5625 C-48.28252859 382.75641372 -48.31842743 380.94698831 -48.32172108 379.13840675 C-48.32617892 378.00486374 -48.33063676 376.87132072 -48.33522969 375.70342791 C-48.33504533 374.45258485 -48.33486097 373.20174178 -48.33467102 371.91299438 C-48.33796994 370.57498422 -48.34169557 369.23697505 -48.3458125 367.89896715 C-48.35583804 364.2139286 -48.35955021 360.52890635 -48.36220181 356.8438561 C-48.36610341 352.87224589 -48.37568209 348.9006486 -48.38441467 344.92904663 C-48.40418679 335.33133831 -48.41424784 325.73362893 -48.42314246 316.13590533 C-48.42752556 311.6148478 -48.43289245 307.09379144 -48.43813133 302.57273483 C-48.45514703 287.53992519 -48.46963954 272.50711627 -48.47688007 257.47429848 C-48.47878995 253.57222111 -48.48071028 249.67014375 -48.48266602 245.76806641 C-48.48339163 244.31331559 -48.48339163 244.31331559 -48.4841319 242.82917587 C-48.49242586 227.13091963 -48.51775054 211.43273974 -48.55024669 195.73451681 C-48.58334754 179.61247061 -48.60133171 163.49046316 -48.60452431 147.36838281 C-48.60668699 138.31859568 -48.6153997 129.26891978 -48.64098549 120.2191658 C-48.66273414 112.50878231 -48.67072261 104.79853706 -48.66101871 97.08812638 C-48.65648556 93.1573697 -48.65830221 89.22689799 -48.67778015 85.29618073 C-48.69549656 81.68960095 -48.69434641 78.08351221 -48.67888286 74.47692661 C-48.67540954 72.57093074 -48.69146989 70.66492921 -48.70848733 68.75900614 C-48.62824466 57.91502465 -45.87946233 48.21316957 -40.9453125 38.58984375 C-40.35363281 37.42259766 -39.76195312 36.25535156 -39.15234375 35.05273438 C-38.53936766 33.8683316 -37.9260857 32.68408708 -37.3125 31.5 C-36.70606964 30.31233947 -36.10059838 29.12418873 -35.49609375 27.93554688 C-34.30895228 25.60632896 -33.11660295 23.27975697 -31.91870117 20.95605469 C-29.73166743 16.66896274 -27.63198462 12.34099187 -25.54858398 8.00268555 C-23.13950632 3.68363061 -20.14761342 1.67499681 -15.875 -0.75 C-10.41008581 -2.1480013 -5.25627243 -2.20521774 0 0 Z " fill="#030101" transform="translate(438.1875,61.4375)"/>
<path d="M0 0 C12.21 0 24.42 0 37 0 C37 102.3 37 204.6 37 310 C24.79 310 12.58 310 0 310 C0 207.7 0 105.4 0 0 Z " fill="#EE4E71" transform="translate(411,127)"/>
<path d="M0 0 C0.74153641 -0.00297112 1.48307282 -0.00594224 2.24708003 -0.0090034 C4.73892469 -0.0176947 7.23072133 -0.01919901 9.72257996 -0.02069092 C11.50636905 -0.02531878 13.29015715 -0.0303434 15.07394409 -0.03573608 C19.92525388 -0.04886502 24.77654983 -0.05530599 29.62787461 -0.05974674 C32.65802271 -0.06267663 35.68816702 -0.06678128 38.71831322 -0.07125092 C48.19674659 -0.08492706 57.67517131 -0.09459318 67.15361387 -0.09845281 C78.09918631 -0.10293419 89.04463391 -0.12048535 99.99016839 -0.1494534 C108.44800473 -0.17106147 116.90580592 -0.18115662 125.36366957 -0.18249393 C130.41644346 -0.18354257 135.46910001 -0.18946299 140.52184486 -0.20731354 C145.27507861 -0.2237791 150.02810663 -0.22595708 154.78135872 -0.21717453 C156.52524618 -0.21640335 158.26914463 -0.22075757 160.0130043 -0.23063278 C162.39538944 -0.24333189 164.77704371 -0.23748692 167.15942383 -0.22705078 C167.84805301 -0.23510719 168.53668219 -0.24316359 169.24617893 -0.25146413 C173.79867932 -0.20488523 176.91820781 0.7203022 180.77018738 3.14044189 C182.78490334 6.16251584 183.10737772 7.05770888 183.20768738 10.51544189 C183.24764832 11.26567627 183.28760925 12.01591064 183.32878113 12.78887939 C182.46899852 16.4083838 180.62701276 17.8206628 177.77018738 20.14044189 C174.99542085 20.63400479 172.83341366 20.81862969 170.06535339 20.77536011 C169.29690125 20.78316006 168.52844912 20.79096001 167.73671055 20.79899633 C165.16534852 20.818918 162.59546626 20.80315212 160.02409363 20.78741455 C158.17926673 20.79419063 156.33444659 20.8030937 154.48963928 20.81396484 C149.48132632 20.83676594 144.47352815 20.82791845 139.46520615 20.81206942 C134.2251369 20.79941467 128.98511186 20.81114935 123.74504089 20.81900024 C114.94507428 20.82809803 106.14531745 20.81610545 97.34538269 20.79229736 C87.1699559 20.7650859 76.99503001 20.77389997 66.81961536 20.80142939 C58.08485786 20.82411572 49.35025119 20.82732285 40.61547375 20.81423604 C35.39784725 20.80643894 30.18045624 20.80540715 24.96284485 20.82191849 C20.05756801 20.83635699 15.15293726 20.82635277 10.24773026 20.7974472 C8.44699807 20.79083309 6.64621155 20.79273964 4.84550095 20.80376053 C2.38793929 20.81741537 -0.06754931 20.80030354 -2.52497864 20.77536011 C-3.23850211 20.78651372 -3.95202559 20.79766732 -4.68717098 20.80915892 C-8.55780245 20.73289427 -10.12794321 20.2234989 -13.16986084 17.74333763 C-15.87488786 14.3253434 -15.95720294 12.50208405 -15.72590637 8.29669189 C-14.92439143 4.81294191 -13.02591153 3.22125968 -10.22981262 1.14044189 C-6.74495176 -0.02117839 -3.62452291 -0.00451674 0 0 Z " fill="#050402" transform="translate(103.22981262207031,312.85955810546875)"/>
<path d="M0 0 C0.76845214 -0.00779995 1.53690428 -0.01559991 2.32864285 -0.02363622 C4.90000488 -0.04355789 7.46988713 -0.02779202 10.04125977 -0.01205444 C11.88608666 -0.01883052 13.7309068 -0.0277336 15.57571411 -0.03860474 C20.58402707 -0.06140583 25.59182525 -0.05255834 30.60014725 -0.03670931 C35.84021649 -0.02405456 41.08024153 -0.03578924 46.3203125 -0.04364014 C55.12027911 -0.05273792 63.92003594 -0.04074534 72.7199707 -0.01693726 C82.89539749 0.0102742 93.07032338 0.00146014 103.24573803 -0.02606928 C111.98049553 -0.04875561 120.7151022 -0.05196275 129.44987965 -0.03887594 C134.66750614 -0.03107883 139.88489716 -0.03004704 145.10250854 -0.04655838 C150.00778538 -0.06099688 154.91241613 -0.05099266 159.81762314 -0.0220871 C161.61835532 -0.01547298 163.41914184 -0.01737953 165.21985245 -0.02840042 C167.6774141 -0.04205526 170.1329027 -0.02494343 172.59033203 0 C173.3038555 -0.01115361 174.01737898 -0.02230722 174.75252438 -0.03379881 C178.62315584 0.04246584 180.1932966 0.55186121 183.23521423 3.03202248 C185.36136363 5.71856361 185.97930293 6.77594133 185.92016602 10.13491821 C185.93305664 10.86710571 185.94594727 11.59929321 185.95922852 12.35366821 C184.93830094 15.86085471 183.1038974 17.34488027 180.29516602 19.63491821 C177.52039949 20.12848111 175.3583923 20.31310601 172.59033203 20.26983643 C171.82187989 20.27763638 171.05342775 20.28543633 170.26168919 20.29347265 C167.69032715 20.31339432 165.1204449 20.29762844 162.54907227 20.28189087 C160.70424537 20.28866695 158.85942523 20.29757002 157.01461792 20.30844116 C152.00630496 20.33124225 146.99850678 20.32239477 141.99018478 20.30654573 C136.75011554 20.29389099 131.5100905 20.30562567 126.27001953 20.31347656 C117.47005292 20.32257435 108.67029609 20.31058176 99.87036133 20.28677368 C89.69493454 20.25956222 79.52000865 20.26837629 69.344594 20.29590571 C60.6098365 20.31859204 51.87522983 20.32179917 43.14045238 20.30871236 C37.92282589 20.30091526 32.70543487 20.29988347 27.48782349 20.31639481 C22.58254665 20.33083331 17.6779159 20.32082908 12.77270889 20.29192352 C10.97197671 20.28530941 9.17119019 20.28721596 7.37047958 20.29823685 C4.91291793 20.31189168 2.45742933 20.29477986 0 20.26983643 C-0.71352347 20.28099003 -1.42704695 20.29214364 -2.16219234 20.30363524 C-6.03282381 20.22737058 -7.60296457 19.71797522 -10.6448822 17.23781395 C-12.7710316 14.55127281 -13.3889709 13.4938951 -13.32983398 10.13491821 C-13.34272461 9.40273071 -13.35561523 8.67054321 -13.36889648 7.91616821 C-11.41120623 1.19092639 -6.27753723 -0.09812879 0 0 Z " fill="#000000" transform="translate(100.704833984375,162.36508178710938)"/>
<path d="M0 0 C8.38856185 -0.06957382 16.77700273 -0.12284852 25.16578197 -0.15543652 C29.06122736 -0.17107878 32.95647503 -0.19229041 36.85180664 -0.22631836 C40.61248525 -0.25896368 44.37297394 -0.27686385 48.13378334 -0.28463173 C49.56709087 -0.290166 51.00038826 -0.30097321 52.43361473 -0.31719017 C54.44416503 -0.33903055 56.45490728 -0.34022597 58.46557617 -0.34057617 C59.60919113 -0.34723801 60.75280609 -0.35389984 61.93107605 -0.36076355 C66.50487272 0.17690345 68.94473791 1.66744946 71.79121399 5.2618866 C73.27994008 8.63411364 73.36108043 11.1258825 73.34057617 14.80981445 C73.34123329 15.80577385 73.34123329 15.80577385 73.34190369 16.82185364 C73.33982423 19.00263529 73.31653461 21.18263496 73.29296875 23.36328125 C73.28736976 24.8807076 73.28310109 26.3981394 73.28010559 27.91557312 C73.26868058 31.899049 73.23923395 35.88219394 73.20599365 39.86553955 C73.17524197 43.93440271 73.16158939 48.00331962 73.14648438 52.07226562 C73.11436167 60.04832853 73.06319409 68.02412303 73 76 C60.63412604 73.93230631 50.65159977 61.15026761 42.84765625 52.06640625 C40.81089408 49.78850522 38.67525925 47.64581412 36.5 45.5 C33.0928121 42.13885518 29.92541826 38.66298797 26.8125 35.03125 C24.7890712 32.76361428 22.66346653 30.6342305 20.5 28.5 C12.88027131 20.95789163 4.9450801 12.61543352 0 3 C0 2.01 0 1.02 0 0 Z " fill="#F4AB5C" transform="translate(33,401)"/>
<path d="M0 0 C1.22254486 -0.00860046 2.44508972 -0.01720093 3.7046814 -0.02606201 C5.06689411 -0.03049738 6.42910727 -0.03479573 7.7913208 -0.03897095 C9.22028809 -0.04687119 10.64925337 -0.05514009 12.07821655 -0.06375122 C16.77846366 -0.08998233 21.47871972 -0.1052808 26.17901611 -0.11953735 C27.79662329 -0.12489675 29.41423041 -0.13027426 31.03183746 -0.13566971 C37.76076358 -0.15730081 44.48968728 -0.17603739 51.21863937 -0.1872921 C60.86377925 -0.20353 70.50851617 -0.23670092 80.15350413 -0.29369295 C86.93404928 -0.33239338 93.71448666 -0.35192494 100.49513936 -0.35721266 C104.54537149 -0.36086628 108.59517396 -0.37288773 112.64528656 -0.4053154 C116.45721344 -0.43539798 120.26845077 -0.44170768 124.08047104 -0.42993164 C125.47767838 -0.42971091 126.87491773 -0.43801588 128.27201462 -0.45558548 C140.1382253 -0.59665951 140.1382253 -0.59665951 144.08996582 2.54779053 C146.97076583 6.01206065 147.01380332 7.67896697 146.72589111 11.99765015 C146.03703847 15.1663723 144.58914557 16.95907243 142.25714111 19.15390015 C139.57610035 20.49442053 137.51088665 20.28905723 134.5075531 20.30107117 C132.67156807 20.31180412 132.67156807 20.31180412 130.79849243 20.32275391 C129.43469264 20.32559429 128.07089257 20.328306 126.70709229 20.3309021 C125.27650283 20.33716583 123.84591501 20.34381255 122.41532898 20.35081482 C118.52267952 20.36823251 114.63004235 20.37877861 110.73736358 20.38702035 C108.30607562 20.39216876 105.8747915 20.39824456 103.44350624 20.40453148 C95.83865586 20.42358551 88.2338152 20.43781632 80.62894553 20.44614345 C71.84649321 20.4559184 63.06429275 20.48224361 54.28192919 20.52264434 C47.49630206 20.55278992 40.71074718 20.56761082 33.92505437 20.57092446 C29.8710112 20.5732767 25.81723703 20.58225929 21.76326561 20.60738564 C17.94894689 20.63064445 14.13507472 20.6349087 10.32070351 20.62462425 C8.92147462 20.62412824 7.52222392 20.63046797 6.12306213 20.6441803 C4.21134973 20.66186608 2.29944392 20.65241852 0.38768005 20.64164734 C-0.68176755 20.64403569 -1.75121515 20.64642405 -2.85307026 20.64888477 C-6.46008264 20.03104869 -8.13061946 18.66446456 -10.74285889 16.15390015 C-12.34372516 12.95216761 -12.24202978 9.62812956 -11.74285889 6.15390015 C-8.32651785 0.80163253 -6.13673968 0.03204797 0 0 Z " fill="#000000" transform="translate(139.74285888671875,237.84609985351563)"/>
<path d="M0 0 C0.98272888 -0.00426498 1.96545776 -0.00852997 2.97796631 -0.01292419 C4.58566643 -0.01224442 4.58566643 -0.01224442 6.22584534 -0.0115509 C7.35956573 -0.01490952 8.49328613 -0.01826813 9.66136169 -0.02172852 C13.41406852 -0.03123799 17.16673073 -0.03318156 20.91944885 -0.03425598 C23.52492288 -0.03746828 26.13039672 -0.04083233 28.73587036 -0.04434204 C34.19916576 -0.05073472 39.66244905 -0.05222473 45.12574768 -0.05158997 C51.43666099 -0.05098907 57.74748886 -0.06154471 64.05838054 -0.07733363 C70.13457116 -0.09199259 76.2107208 -0.09557785 82.28692818 -0.09498024 C84.87013663 -0.09616172 87.4533457 -0.10059285 90.03654289 -0.10831261 C93.64659123 -0.11809176 97.25641857 -0.11524264 100.86647034 -0.10920715 C102.47113411 -0.11763641 102.47113411 -0.11763641 104.10821533 -0.12623596 C105.58653839 -0.11994423 105.58653839 -0.11994423 107.09472656 -0.11352539 C107.94772056 -0.11407016 108.80071455 -0.11461493 109.67955685 -0.1151762 C113.77650099 0.30422286 116.43986039 1.49898804 119.4233551 4.32121277 C121.60434456 7.9561952 121.78182146 9.958811 121.1108551 14.13371277 C118.6733551 17.00871277 118.6733551 17.00871277 116.1108551 19.13371277 C115.7808551 19.46371277 115.4508551 19.79371277 115.1108551 20.13371277 C113.52823783 20.24053022 111.94087808 20.27778807 110.35469055 20.28761292 C108.81105583 20.30051361 108.81105583 20.30051361 107.23623657 20.31367493 C106.09754623 20.31793488 104.9588559 20.32219482 103.78565979 20.32658386 C101.99795418 20.3388501 101.99795418 20.3388501 100.1741333 20.35136414 C96.21034594 20.37627871 92.24656597 20.39289796 88.2827301 20.40715027 C86.91924787 20.41250891 85.55576571 20.41788642 84.19228363 20.42328262 C78.52025138 20.44491905 72.84822201 20.46365535 67.17615891 20.47490501 C59.04332998 20.49113997 50.91097921 20.52429707 42.77833056 20.58130586 C37.06278053 20.62000608 31.34735835 20.6395379 25.63168073 20.64482558 C22.21691628 20.64847979 18.80266136 20.66050614 15.38803864 20.69292831 C11.57619627 20.72443039 7.76556607 20.72463814 3.95362854 20.71720886 C2.25773842 20.74181686 2.25773842 20.74181686 0.52758789 20.766922 C-7.98997093 20.69881813 -7.98997093 20.69881813 -11.06681824 17.65974426 C-11.66818604 16.82615387 -12.26955383 15.99256348 -12.8891449 15.13371277 C-13.2191449 14.80371277 -13.5491449 14.47371277 -13.8891449 14.13371277 C-14.39134884 9.86497924 -14.30191634 7.13210113 -11.6391449 3.75871277 C-7.8402698 0.13251381 -5.11023883 0.01004433 0 0 Z " fill="#030301" transform="translate(162.88914489746094,386.8662872314453)"/>
<path d="M0 0 C4.02795622 2.63094538 6.3591183 6.14820868 8.3125 10.5 C8.98606038 13.89194227 9.01553667 17.17448715 8.9765625 20.625 C8.98134613 21.57133301 8.98612976 22.51766602 8.99105835 23.49267578 C8.99444327 25.48276442 8.98534002 27.47290974 8.96435547 29.46289062 C8.93756934 32.49215829 8.96415102 35.51772124 8.99609375 38.546875 C8.9927894 40.48959143 8.98638265 42.43230558 8.9765625 44.375 C8.98668365 45.27105957 8.99680481 46.16711914 9.00723267 47.09033203 C8.89177256 53.35011401 7.40315411 57.69241789 3.3125 62.5 C-0.54534196 65.83475352 -4.65458089 67.16489657 -9.69921875 66.890625 C-14.1311403 66.0199135 -17.52324565 63.78067979 -20.5625 60.4375 C-22.42703191 57.22636171 -22.82032047 54.57637778 -22.86450195 50.94018555 C-22.87733719 50.01880295 -22.89017242 49.09742035 -22.90339661 48.14811707 C-22.91078354 47.15435562 -22.91817047 46.16059418 -22.92578125 45.13671875 C-22.933853 44.11197952 -22.94192474 43.0872403 -22.95024109 42.03144836 C-22.96407442 39.86188445 -22.97479993 37.69229884 -22.98266602 35.52270508 C-22.99987953 32.21067941 -23.04377324 28.89965181 -23.08789062 25.58789062 C-23.09801775 23.479174 -23.10653379 21.3704489 -23.11328125 19.26171875 C-23.13078934 18.27403 -23.14829742 17.28634125 -23.16633606 16.26872253 C-23.14771008 10.34242377 -22.58484154 7.04086354 -18.6875 2.5 C-13.00417687 -2.56086393 -6.80641533 -2.76871132 0 0 Z " fill="#00B3E7" transform="translate(194.6875,21.5)"/>
<path d="M0 0 C3.88446678 2.58964452 6.69907021 5.64814041 8.8125 9.875 C8.91685254 11.29307891 8.96113612 12.715837 8.97363281 14.13769531 C8.98324036 15.01911194 8.9928479 15.90052856 9.00274658 16.80865479 C9.00699646 17.76382996 9.01124634 18.71900513 9.015625 19.703125 C9.02132507 20.68488708 9.02702515 21.66664917 9.03289795 22.67816162 C9.04235637 24.75955119 9.04888526 26.84095578 9.05273438 28.92236328 C9.06241843 32.09825029 9.0934252 35.27348432 9.125 38.44921875 C9.13153218 40.47135032 9.13678181 42.49348653 9.140625 44.515625 C9.1529718 45.46270325 9.1653186 46.40978149 9.17803955 47.38555908 C9.15792689 53.37710767 8.52397866 57.90225907 4.3125 62.51953125 C-0.16525797 66.00611883 -3.32095367 67.26062869 -9.0625 67.14453125 C-12.79865522 66.67064392 -15.35098892 65.30939176 -18.1875 62.875 C-22.34307838 57.10651481 -22.77953689 51.41094293 -22.71875 44.49609375 C-22.7225769 43.52519302 -22.72640381 42.5542923 -22.73034668 41.55397034 C-22.73305491 39.51261348 -22.7257705 37.47122127 -22.70898438 35.42993164 C-22.68753605 32.31773128 -22.70883555 29.20783304 -22.734375 26.09570312 C-22.73173199 24.10416161 -22.72660755 22.11262152 -22.71875 20.12109375 C-22.72684692 19.19799911 -22.73494385 18.27490448 -22.74328613 17.32383728 C-22.65686316 11.32920966 -21.63902732 7.80714947 -18.1875 2.875 C-12.98905167 -2.06352591 -6.5629217 -2.3163253 0 0 Z " fill="#00B5E9" transform="translate(98.1875,21.125)"/>
<path d="M0 0 C5.03989158 2.47631037 7.17250896 6.20167191 8.9921875 11.38671875 C9.52724171 14.77375915 9.55437887 18.08753999 9.5234375 21.51171875 C9.5272644 22.45805176 9.53109131 23.40438477 9.53503418 24.37939453 C9.53774211 26.36947704 9.53045979 28.35959583 9.51367188 30.34960938 C9.49224621 33.37841904 9.51351183 36.40485698 9.5390625 39.43359375 C9.53641903 41.37630727 9.53129364 43.31901932 9.5234375 45.26171875 C9.53153442 46.15777832 9.53963135 47.05383789 9.54797363 47.97705078 C9.46133109 53.84881343 8.44884789 58.53691401 4.9921875 63.38671875 C0.81814928 67.04440387 -3.36491537 68.04480806 -8.8671875 67.7734375 C-13.51780383 66.93327141 -16.25460504 64.22135404 -19.3203125 60.82421875 C-21.60167241 57.52892111 -22.13366179 55.01353532 -22.16894531 51.10229492 C-22.17855286 50.24097458 -22.1881604 49.37965424 -22.19805908 48.49223328 C-22.20230896 47.56409317 -22.20655884 46.63595306 -22.2109375 45.6796875 C-22.21663757 44.72153641 -22.22233765 43.76338531 -22.22821045 42.77619934 C-22.23765795 40.74786482 -22.24419344 38.71951497 -22.24804688 36.69116211 C-22.25774248 33.59656806 -22.28876427 30.50264103 -22.3203125 27.40820312 C-22.3268438 25.43620185 -22.33209377 23.46419584 -22.3359375 21.4921875 C-22.3482843 20.57012009 -22.3606311 19.64805267 -22.37335205 18.69804382 C-22.35295859 12.78082547 -21.68940738 8.25936874 -17.47265625 3.7421875 C-11.77823032 -0.6123735 -7.11056232 -2.17190328 0 0 Z " fill="#00B4E9" transform="translate(289.0078125,20.61328125)"/>
<path d="M0 0 C6.27 0 12.54 0 19 0 C19.13483705 4.5634852 19.23407207 9.12299441 19.3125 13.6875 C19.35439453 14.98107422 19.39628906 16.27464844 19.43945312 17.60742188 C19.45556641 18.85458984 19.47167969 20.10175781 19.48828125 21.38671875 C19.51446533 22.53358154 19.54064941 23.68044434 19.56762695 24.86206055 C18.83124626 28.93289973 17.09924144 30.36933542 14 33 C13.505 33.495 13.505 33.495 13 34 C8.83599038 34.40038554 6.67749304 34.44184328 3.125 32.125 C0.58235705 29.58235705 0.03204932 28.78972293 -0.11352539 25.20263672 C-0.10828857 24.04006348 -0.10305176 22.87749023 -0.09765625 21.6796875 C-0.09443359 20.42285156 -0.09121094 19.16601562 -0.08789062 17.87109375 C-0.07951172 16.55238281 -0.07113281 15.23367188 -0.0625 13.875 C-0.05748489 12.53515789 -0.05292201 11.195314 -0.04882812 9.85546875 C-0.03701095 6.57029343 -0.01907501 3.28514119 0 0 Z " fill="#FCD665" transform="translate(420,458)"/>
<path d="M0 0 C2.75329021 1.79562405 4.52627461 3.05254922 6 6 C6.50698467 11.15434412 6.50698467 11.15434412 6 14 C3.5625 16.9375 3.5625 16.9375 1 19 C0.67 19.33 0.34 19.66 0 20 C-4.16400962 20.40038554 -6.32250696 20.44184328 -9.875 18.125 C-12.80038857 15.19961143 -12.96503325 14.42659437 -13.3125 10.1875 C-13.28232024 6.86772673 -13.0060988 6.00955479 -11.125 3.0625 C-7.52072687 -0.4357651 -4.96784874 -0.42100413 0 0 Z " fill="#070603" transform="translate(101,238)"/>
<path d="M0 0 C3.05419297 3.69008172 5.06593095 7.80017954 7.1875 12.0625 C7.55552734 12.78244141 7.92355469 13.50238281 8.30273438 14.24414062 C8.65013672 14.93830078 8.99753906 15.63246094 9.35546875 16.34765625 C9.82956177 17.29137085 9.82956177 17.29137085 10.31323242 18.25415039 C11 20 11 20 11 23 C3.74 23 -3.52 23 -11 23 C-9.55625 19.9475 -8.1125 16.895 -6.625 13.75 C-6.17334473 12.79448242 -5.72168945 11.83896484 -5.25634766 10.85449219 C-4.89589355 10.09297852 -4.53543945 9.33146484 -4.1640625 8.546875 C-3.79748535 7.77182617 -3.4309082 6.99677734 -3.05322266 6.19824219 C-2.05768996 4.12040807 -1.03691854 2.0574431 0 0 Z " fill="#9ED8EE" transform="translate(429,83)"/>
</svg>
